#  ==========================================================================
#  
#  Wavefront OBJ format exported by Red-i Productions' "Riptide Pro"
#     (a commercial plugin for Cinema 4D PC & Mac, R9.6 or later)
#  
#  Red-i Productions
#  http://skinprops.com
#  
#  ==========================================================================
v 0.0121016 0.273133 0.778471
v 0.0121016 -0.321571 0.778471
v 0.790579 -0.0242192 0.297345
v 0.790579 -0.0242192 -0.297358
v 0.0121016 0.273133 -0.778483
v 0.0121016 -0.321571 -0.778483
v -0.766375 -0.0242192 -0.297358
v -0.766375 -0.0242192 0.297345
v -0.28525 0.754258 -6.34237e-06
v 0.309453 0.754258 -6.34237e-06
v 0.309453 -0.802696 -6.34237e-06
v -0.28525 -0.802696 -6.34237e-06
v 0.493227 -0.505344 0.481119
v 0.493227 -0.505344 -0.481132
v -0.469024 -0.505344 -0.481132
v -0.469024 -0.505344 0.481119
v 0.493227 0.456906 0.481119
v 0.493227 0.456906 -0.481132
v -0.469024 0.456906 -0.481132
v -0.469024 0.456906 0.481119
# 20 vertices

vt 0.62500 0.69591
vt 0.87500 0.69591
vt 0.75000 0.61614
vt 0.87500 0.30409
vt 0.62500 0.30409
vt 0.75000 0.38386
vt 0.94193 0.50000
vt 0.12500 0.69591
vt 0.12500 0.30409
vt 0.05807 0.50000
vt 0.37500 0.69591
vt 0.25000 0.61614
vt 0.37500 0.30409
vt 0.25000 0.38386
vt 0.44193 0.50000
vt 0.55807 0.50000
vt 0.50000 0.88386
vt 1.12500 0.69591
vt 1.00000 0.88386
vt 1.12500 0.30409
vt 1.00000 0.11614
vt 0.50000 0.11614
vt 1.05807 0.50000
vt 0.00000 0.88386
vt 1.50000 0.88386
vt 0.00000 0.11614
vt 1.50000 0.11614
# 27 texture coordinates

vn 0 0.850651 0.525731
vn 0 0.850651 0.525731
vn 0 -0.850651 0.525731
vn -0 -0.850651 0.525731
vn 0.525731 0 0.850651
vn 0.525731 0 0.850651
vn 0.525731 0 -0.850651
vn 0.525731 0 -0.850651
vn 0 0.850651 -0.525731
vn 0 0.850651 -0.525731
vn 0 -0.850651 -0.525731
vn 0 -0.850651 -0.525731
vn -0.525731 0 -0.850651
vn -0.525731 0 -0.850651
vn -0.525731 0 0.850651
vn -0.525731 -0 0.850651
vn -0.850651 0.525731 -0
vn -0.850651 0.525731 -0
vn 0.850651 0.525731 -0
vn 0.850651 0.525731 -0
vn 0.850651 -0.525731 -0
vn 0.850651 -0.525731 -0
vn -0.850651 -0.525731 -0
vn -0.850651 -0.525731 0
# 24 vertex normals

f 1/3/2 17/2/1 20/1/1
f 2/6/4 16/5/3 13/4/3
f 3/7/6 17/2/5 13/4/5
f 4/10/8 14/9/7 18/8/7
f 5/12/10 19/11/9 18/8/9
f 6/14/12 14/9/11 15/13/11
f 7/15/14 19/11/13 15/13/13
f 8/16/16 16/5/15 20/1/15
f 9/17/18 19/11/17 20/1/17
f 10/19/20 17/2/19 18/18/19
f 11/21/22 14/20/21 13/4/21
f 12/22/24 16/5/23 15/13/23
f 1/3/5 2/6/5 13/4/5 17/2/5
f 2/6/15 1/3/15 20/1/15 16/5/15
f 3/7/19 4/23/19 18/18/19 17/2/19
f 4/23/21 3/7/21 13/4/21 14/20/21
f 5/12/13 6/14/13 15/13/13 19/11/13
f 6/14/7 5/12/7 18/8/7 14/9/7
f 7/15/17 8/16/17 20/1/17 19/11/17
f 8/16/23 7/15/23 15/13/23 16/5/23
f 9/17/9 10/24/9 18/8/9 19/11/9
f 10/19/1 9/25/1 20/1/1 17/2/1
f 11/26/11 12/22/11 15/13/11 14/9/11
f 12/27/3 11/21/3 13/4/3 16/5/3
# 24 facets

